<svg width="43" height="43" viewBox="0 0 43 43" fill="none" xmlns="http://www.w3.org/2000/svg">
<rect width="43" height="43" rx="11" fill="black"/>
<path d="M27.3168 8.08C27.8128 8.176 28.1808 8.344 28.4208 8.584C28.6768 8.824 28.8048 9.104 28.8048 9.424C28.8048 9.952 28.6528 10.336 28.3488 10.576C28.0608 10.816 27.5968 10.912 26.9568 10.864C25.5168 10.752 24.3888 10.68 23.5728 10.648C22.7728 10.6 21.7168 10.568 20.4048 10.552C19.8128 13.496 19.2688 16.456 18.7728 19.432C18.5968 20.52 18.4128 21.784 18.2208 23.224C18.0288 24.648 17.9008 25.8 17.8368 26.68C17.8048 27.144 17.6128 27.504 17.2608 27.76C16.9088 28 16.4848 28.12 15.9888 28.12C15.4608 28.12 15.0528 27.992 14.7648 27.736C14.4768 27.48 14.3328 27.144 14.3328 26.728C14.3328 26.344 14.3888 25.712 14.5008 24.832C14.6288 23.936 14.7728 23 14.9328 22.024C15.1088 21.048 15.2448 20.2 15.3408 19.48C15.5168 18.264 15.7168 17.056 15.9408 15.856C16.1648 14.656 16.3888 13.52 16.6128 12.448C16.6608 12.208 16.7168 11.936 16.7808 11.632C16.8448 11.312 16.9168 10.96 16.9968 10.576C15.4288 10.624 14.1968 10.752 13.3008 10.96C12.4048 11.168 11.7648 11.464 11.3808 11.848C11.0128 12.216 10.8288 12.696 10.8288 13.288C10.8288 13.832 10.9888 14.352 11.3088 14.848C11.3728 14.96 11.4048 15.08 11.4048 15.208C11.4048 15.512 11.2208 15.8 10.8528 16.072C10.5008 16.328 10.1328 16.456 9.74881 16.456C9.47681 16.456 9.25281 16.376 9.07681 16.216C8.75681 15.944 8.49281 15.56 8.28481 15.064C8.07681 14.552 7.97281 13.976 7.97281 13.336C7.97281 11.976 8.41281 10.888 9.29281 10.072C10.1888 9.24 11.5408 8.632 13.3488 8.248C15.1728 7.864 17.5088 7.672 20.3568 7.672C22.1168 7.672 23.5168 7.704 24.5568 7.768C25.6128 7.832 26.5328 7.936 27.3168 8.08Z" fill="#E4016B"/>
<path d="M33.3974 18.608C33.7974 18.608 34.0774 18.672 34.2374 18.8C34.4134 18.912 34.5014 19.144 34.5014 19.496C34.5014 19.688 34.4934 19.84 34.4774 19.952C34.4134 20.448 34.2134 21.728 33.8774 23.792C33.6374 25.184 33.4854 26.104 33.4214 26.552C32.8134 30.68 31.9894 33.936 30.9494 36.32C29.9254 38.72 28.5494 39.92 26.8214 39.92C26.0054 39.92 25.3414 39.664 24.8294 39.152C24.3174 38.656 24.0614 38 24.0614 37.184C24.0614 36.048 24.5094 34.824 25.4054 33.512C26.3014 32.216 27.9814 30.616 30.4454 28.712L30.5894 27.776C30.3174 28.208 29.9574 28.544 29.5094 28.784C29.0774 29.008 28.6454 29.12 28.2134 29.12C27.2214 29.12 26.4294 28.76 25.8374 28.04C25.2454 27.32 24.9494 26.376 24.9494 25.208C24.9494 23.928 25.2454 22.72 25.8374 21.584C26.4294 20.432 27.2134 19.512 28.1894 18.824C29.1814 18.12 30.2294 17.768 31.3334 17.768C31.6854 17.768 31.9174 17.84 32.0294 17.984C32.1574 18.112 32.2614 18.352 32.3414 18.704C32.6454 18.64 32.9974 18.608 33.3974 18.608ZM29.0774 26.696C29.4454 26.696 29.7974 26.472 30.1334 26.024C30.4694 25.576 30.7094 24.936 30.8534 24.104L31.6214 20C30.9654 20.016 30.3574 20.272 29.7974 20.768C29.2374 21.248 28.7894 21.888 28.4534 22.688C28.1174 23.488 27.9494 24.336 27.9494 25.232C27.9494 25.728 28.0454 26.096 28.2374 26.336C28.4454 26.576 28.7254 26.696 29.0774 26.696ZM27.0854 37.592C27.4854 37.592 27.9334 37.112 28.4294 36.152C28.9414 35.192 29.4294 33.664 29.8934 31.568C28.6614 32.624 27.7734 33.576 27.2294 34.424C26.6854 35.272 26.4134 36.016 26.4134 36.656C26.4134 36.928 26.4614 37.152 26.5574 37.328C26.6694 37.504 26.8454 37.592 27.0854 37.592Z" fill="#E4016B"/>
</svg>
